<svg width="21" height="23" viewBox="0 0 21 23" fill="none" xmlns="http://www.w3.org/2000/svg">
<path d="M16.8423 14.0344L18.4212 16.1034L20.0002 14.0344" stroke="black" stroke-linecap="round" stroke-linejoin="round"/>
<path d="M7.5509 14.298L8.5589 14.316V16.926H7.5509V14.298ZM7.6409 14.1V3.138L8.4509 3.012V14.136L7.6409 14.1ZM7.5509 0.329999H8.5589V2.904L7.5509 3.03V0.329999ZM11.5649 4.902C11.4209 4.734 11.2289 4.572 10.9889 4.416C10.7489 4.26 10.4789 4.122 10.1789 4.002C9.8789 3.87 9.5489 3.768 9.1889 3.696C8.8409 3.612 8.4749 3.57 8.0909 3.57C7.1069 3.57 6.3809 3.756 5.9129 4.128C5.4449 4.5 5.2109 5.01 5.2109 5.658C5.2109 6.114 5.3309 6.474 5.5709 6.738C5.8109 7.002 6.1769 7.218 6.6689 7.386C7.1729 7.554 7.8089 7.728 8.5769 7.908C9.4649 8.1 10.2329 8.334 10.8809 8.61C11.5289 8.886 12.0269 9.258 12.3749 9.726C12.7229 10.182 12.8969 10.794 12.8969 11.562C12.8969 12.174 12.7769 12.708 12.5369 13.164C12.3089 13.608 11.9849 13.98 11.5649 14.28C11.1449 14.568 10.6529 14.784 10.0889 14.928C9.5249 15.06 8.9129 15.126 8.2529 15.126C7.6049 15.126 6.9689 15.06 6.3449 14.928C5.7329 14.784 5.1509 14.58 4.5989 14.316C4.0469 14.052 3.5309 13.722 3.0509 13.326L3.8249 11.958C4.0169 12.162 4.2629 12.366 4.5629 12.57C4.8749 12.762 5.2229 12.942 5.6069 13.11C6.0029 13.278 6.4289 13.416 6.8849 13.524C7.3409 13.62 7.8089 13.668 8.2889 13.668C9.2009 13.668 9.9089 13.506 10.4129 13.182C10.9169 12.846 11.1689 12.36 11.1689 11.724C11.1689 11.244 11.0249 10.86 10.7369 10.572C10.4609 10.284 10.0469 10.044 9.4949 9.852C8.9429 9.66 8.2709 9.468 7.4789 9.276C6.6149 9.06 5.8889 8.826 5.3009 8.574C4.7129 8.31 4.2689 7.968 3.9689 7.548C3.6809 7.128 3.5369 6.582 3.5369 5.91C3.5369 5.094 3.7349 4.404 4.1309 3.84C4.5269 3.276 5.0729 2.85 5.7689 2.562C6.4649 2.274 7.2509 2.13 8.1269 2.13C8.7029 2.13 9.2369 2.19 9.7289 2.31C10.2329 2.43 10.7009 2.598 11.1329 2.814C11.5649 3.03 11.9609 3.288 12.3209 3.588L11.5649 4.902Z" fill="#1D1F22"/>
</svg>
